<svg id="Capa_1" enable-background="new 0 0 493.583 493.583" height="512" viewBox="0 0 493.583 493.583" width="512" xmlns="http://www.w3.org/2000/svg"><g><g><path d="m36.194 415.289c-1.17 0-2.358-.275-3.467-.854-3.671-1.918-5.092-6.45-3.173-10.121l6.078-11.629c1.919-3.671 6.45-5.092 10.121-3.173 3.671 1.918 5.092 6.45 3.173 10.121l-6.078 11.629c-1.34 2.561-3.951 4.027-6.654 4.027z" fill="#9ec8fc"/></g><g><path d="m13.595 458.53c-1.17 0-2.358-.275-3.467-.854-3.671-1.918-5.092-6.45-3.173-10.121l6.078-11.629c1.918-3.671 6.451-5.092 10.121-3.173 3.671 1.918 5.092 6.45 3.173 10.121l-6.078 11.629c-1.339 2.561-3.95 4.027-6.654 4.027z" fill="#9ec8fc"/></g><g><path d="m321.122 372.047c-1.171 0-2.359-.275-3.468-.854-3.672-1.919-5.092-6.45-3.173-10.121l6.078-11.629c1.919-3.671 6.454-5.09 10.12-3.173 3.672 1.919 5.092 6.45 3.173 10.121l-6.078 11.629c-1.338 2.561-3.949 4.027-6.652 4.027z" fill="#9ec8fc"/></g><g><path d="m275.925 458.53c-1.171 0-2.359-.275-3.468-.854-3.672-1.919-5.092-6.45-3.173-10.121l6.078-11.629c1.919-3.671 6.454-5.09 10.12-3.173 3.672 1.919 5.092 6.45 3.173 10.121l-6.078 11.629c-1.339 2.561-3.949 4.027-6.652 4.027z" fill="#9ec8fc"/></g><g><path d="m81.392 328.806c-1.17 0-2.358-.275-3.467-.854-3.671-1.918-5.092-6.449-3.173-10.121l6.077-11.629c1.918-3.671 6.449-5.092 10.121-3.174 3.671 1.918 5.092 6.45 3.173 10.121l-6.077 11.629c-1.339 2.562-3.951 4.028-6.654 4.028z" fill="#9ec8fc"/></g><g><path d="m58.793 372.048c-1.17 0-2.358-.275-3.467-.854-3.671-1.918-5.092-6.45-3.173-10.121l6.078-11.629c1.918-3.671 6.451-5.092 10.121-3.173 3.671 1.919 5.092 6.45 3.173 10.121l-6.078 11.629c-1.34 2.561-3.951 4.027-6.654 4.027z" fill="#9ec8fc"/></g><g><path d="m147.843 328.806c-1.171 0-2.358-.275-3.467-.854-3.671-1.918-5.092-6.45-3.173-10.121l6.078-11.629c1.918-3.671 6.45-5.092 10.121-3.173 3.671 1.918 5.092 6.45 3.173 10.121l-6.078 11.629c-1.34 2.562-3.951 4.027-6.654 4.027z" fill="#9ec8fc"/></g><g><path d="m125.244 372.048c-1.17 0-2.358-.275-3.467-.854-3.671-1.918-5.092-6.45-3.173-10.121l6.078-11.629c1.919-3.671 6.451-5.092 10.121-3.173 3.671 1.919 5.092 6.45 3.173 10.121l-6.078 11.629c-1.339 2.561-3.95 4.027-6.654 4.027z" fill="#9ec8fc"/></g><g><path d="m102.646 415.289c-1.17 0-2.358-.275-3.467-.854-3.671-1.918-5.092-6.45-3.173-10.121l6.078-11.629c1.918-3.671 6.451-5.092 10.121-3.173 3.671 1.918 5.092 6.45 3.173 10.121l-6.078 11.629c-1.34 2.561-3.951 4.027-6.654 4.027z" fill="#9ec8fc"/></g><g><path d="m80.047 458.53c-1.17 0-2.358-.275-3.467-.854-3.671-1.918-5.092-6.449-3.173-10.121l6.077-11.629c1.918-3.671 6.449-5.092 10.121-3.174 3.671 1.918 5.092 6.45 3.173 10.121l-6.078 11.629c-1.338 2.562-3.95 4.028-6.653 4.028z" fill="#9ec8fc"/></g><g><path d="m213.157 328.806c-1.17 0-2.358-.275-3.467-.855-3.671-1.918-5.092-6.45-3.173-10.121l6.078-11.629c1.919-3.671 6.452-5.092 10.121-3.173 3.671 1.919 5.092 6.45 3.173 10.121l-6.078 11.629c-1.34 2.562-3.951 4.028-6.654 4.028z" fill="#9ec8fc"/></g><g><path d="m190.558 372.047c-1.17 0-2.358-.275-3.467-.854-3.671-1.918-5.092-6.45-3.173-10.121l6.078-11.629c1.918-3.671 6.451-5.092 10.121-3.173 3.671 1.918 5.092 6.45 3.173 10.121l-6.078 11.629c-1.339 2.561-3.951 4.027-6.654 4.027z" fill="#9ec8fc"/></g><g><path d="m167.96 415.288c-1.171 0-2.358-.275-3.467-.854-3.671-1.918-5.092-6.45-3.173-10.121l6.078-11.629c1.918-3.671 6.451-5.092 10.121-3.173 3.671 1.918 5.092 6.45 3.173 10.121l-6.078 11.629c-1.34 2.562-3.951 4.027-6.654 4.027z" fill="#9ec8fc"/></g><g><path d="m145.361 458.53c-1.17 0-2.358-.275-3.467-.854-3.671-1.919-5.092-6.45-3.173-10.121l6.078-11.629c1.919-3.671 6.45-5.092 10.121-3.173 3.671 1.918 5.092 6.45 3.173 10.121l-6.078 11.629c-1.339 2.561-3.951 4.027-6.654 4.027z" fill="#9ec8fc"/></g><g><path d="m233.322 411.061c-1.17 0-2.358-.275-3.467-.854-3.671-1.918-5.092-6.45-3.173-10.121l6.078-11.629c1.918-3.671 6.451-5.092 10.121-3.173 3.671 1.918 5.092 6.45 3.173 10.121l-6.078 11.629c-1.34 2.561-3.951 4.027-6.654 4.027z" fill="#9ec8fc"/></g><g><path d="m210.723 454.302c-1.17 0-2.358-.275-3.467-.854-3.671-1.918-5.092-6.45-3.173-10.121l6.078-11.629c1.919-3.671 6.451-5.092 10.121-3.173 3.671 1.918 5.092 6.45 3.173 10.121l-6.078 11.629c-1.339 2.561-3.951 4.027-6.654 4.027z" fill="#9ec8fc"/></g><g><path d="m343.721 328.806c-1.171 0-2.359-.275-3.468-.855-3.672-1.919-5.092-6.45-3.173-10.121l6.078-11.629c1.92-3.671 6.453-5.09 10.12-3.173 3.672 1.919 5.092 6.45 3.173 10.121l-6.078 11.629c-1.339 2.562-3.949 4.028-6.652 4.028z" fill="#9ec8fc"/></g><g><path d="m298.524 415.288c-1.171 0-2.359-.275-3.468-.854-3.672-1.919-5.092-6.45-3.173-10.121l6.078-11.629c1.919-3.671 6.453-5.091 10.12-3.173 3.672 1.919 5.092 6.45 3.173 10.121l-6.078 11.629c-1.339 2.562-3.949 4.027-6.652 4.027z" fill="#9ec8fc"/></g><g><path d="m103.99 285.565c-1.17 0-2.358-.275-3.467-.854-3.671-1.918-5.092-6.45-3.173-10.121l4.359-8.342c1.919-3.671 6.448-5.092 10.121-3.173 3.671 1.918 5.092 6.45 3.173 10.121l-4.359 8.342c-1.339 2.561-3.951 4.027-6.654 4.027z" fill="#9ec8fc"/></g><g><path d="m170.442 285.565c-1.17 0-2.358-.275-3.468-.854-3.671-1.919-5.091-6.45-3.173-10.121l4.124-7.891c1.918-3.671 6.45-5.092 10.121-3.173s5.091 6.45 3.173 10.121l-4.124 7.891c-1.339 2.561-3.95 4.027-6.653 4.027z" fill="#9ec8fc"/></g><g><path d="m366.32 285.565c-1.171 0-2.358-.275-3.468-.854-3.671-1.919-5.092-6.45-3.174-10.121l4.565-8.737c1.92-3.671 6.451-5.091 10.121-3.174 3.671 1.918 5.092 6.449 3.174 10.121l-4.565 8.737c-1.338 2.561-3.949 4.028-6.653 4.028z" fill="#9ec8fc"/></g><g><path d="m462.388 150.041c-4.523 0-8.817.962-12.697 2.68-6.005-12.495-18.139-21.525-32.545-23.288 2.882-7.628 4.468-15.883 4.468-24.508 0-38.589-31.546-69.872-70.46-69.872-32.829 0-60.414 22.264-68.238 52.397-9.325-8.665-21.854-13.98-35.642-13.98-26.25 0-47.961 19.236-51.604 44.267-1.838-.314-3.725-.487-5.653-.487-13.369 0-24.878 7.872-30.089 19.194-8.339-9.151-20.399-14.903-33.815-14.903-25.166 0-45.566 20.23-45.566 45.186 0 24.166 19.13 43.9 43.193 45.125v.061h338.648c17.229 0 31.195-13.85 31.195-30.935 0-17.087-13.967-30.937-31.195-30.937z" fill="#495959"/></g><g><path d="m462.387 150.041c-4.523 0-8.817.962-12.697 2.679-6.005-12.495-18.139-21.525-32.545-23.288 2.882-7.627 4.468-15.883 4.468-24.508 0-38.589-31.546-69.872-70.459-69.872-14.341 0-27.68 4.249-38.809 11.546 2.886-.357 5.825-.546 8.809-.546 38.914 0 70.459 31.283 70.459 69.872 0 1.778-.067 3.54-.2 5.284-.763 10.073 4.018 19.836 12.613 25.143 2.843 1.755 5.458 3.841 7.79 6.202 5.416 5.484 12.728 8.521 20.435 8.488h.136c17.229 0 31.195 13.85 31.195 30.935 0 7.597-2.766 14.551-7.348 19.935h6.153c17.229 0 31.195-13.85 31.195-30.935s-13.966-30.935-31.195-30.935z" fill="#3f4a4a"/></g><g><path d="m387.63 171.243c-14.153 0-26.874 6.068-35.671 15.721-5.497-11.942-17.637-20.247-31.74-20.247-2.034 0-4.024.183-5.963.514-3.842-26.404-26.744-46.695-54.435-46.695-14.544 0-27.76 5.607-37.597 14.748-8.254-31.786-37.352-55.271-71.981-55.271-41.049 0-74.325 32.999-74.325 73.705 0 9.098 1.673 17.807 4.713 25.853-15.197 1.86-27.996 11.385-34.33 24.566-4.093-1.811-8.622-2.827-13.394-2.827-18.174-.002-32.907 14.608-32.907 32.63s14.733 32.632 32.907 32.632h357.226v-.064c25.382-1.292 45.562-22.109 45.562-47.601 0-26.324-21.519-47.664-48.065-47.664z" fill="#738c96"/></g><g><path d="m387.63 171.243c-14.153 0-26.874 6.068-35.671 15.721-5.498-11.942-17.637-20.247-31.74-20.247-2.034 0-4.024.183-5.963.514-3.842-26.404-26.744-46.695-54.435-46.695-14.544 0-27.76 5.607-37.597 14.747-8.254-31.786-37.352-55.271-71.981-55.271-32.42 0-59.975 20.591-70.134 49.298 13.218-11.984 30.813-19.298 50.134-19.298 25.466 0 47.94 12.7 61.334 32.062 7.046 10.186 19.836 14.699 31.654 10.991 5.234-1.643 10.807-2.529 16.591-2.529 25.614 0 47.13 17.362 53.255 40.863.825 3.165 3.644 5.341 6.914 5.319.076-.001.153-.001.229-.001 11.31 0 21.356 5.34 27.728 13.615 2.385 3.097 6.806 3.594 9.881 1.18 8.191-6.429 18.544-10.269 29.802-10.269 26.546 0 48.066 21.34 48.066 47.665 0 3.191-.316 6.309-.92 9.324 12.628-8.589 20.92-22.992 20.92-39.324-.002-26.325-21.521-47.665-48.067-47.665z" fill="#607882"/></g><g><path d="m277.869 165.878-67.017 113.991c-2.045 3.478.463 7.862 4.498 7.862h38.247c3.214 0 5.663 2.877 5.151 6.049l-11.309 70.011c-.922 5.71 6.748 8.456 9.659 3.458l65.925-113.193c2.026-3.478-.483-7.843-4.509-7.843h-36.739c-3.198 0-5.643-2.85-5.157-6.011l10.905-70.886c.875-5.683-6.74-8.394-9.654-3.438z" fill="#f7e365"/></g></g></svg>